<svg width="312" height="290" xmlns="http://www.w3.org/2000/svg" xmlns:xlink="http://www.w3.org/1999/xlink" overflow="hidden"><defs><clipPath id="clip0"><path d="M24 61 336 61 336 351 24 351Z" fill-rule="evenodd" clip-rule="evenodd"/></clipPath><clipPath id="clip1"><path d="M135 62 335 62 335 262 135 262Z" fill-rule="evenodd" clip-rule="evenodd"/></clipPath><clipPath id="clip2"><path d="M135 62 336 62 336 263 135 263Z" fill-rule="evenodd" clip-rule="evenodd"/></clipPath><clipPath id="clip3"><path d="M135 62 336 62 336 263 135 263Z" fill-rule="evenodd" clip-rule="evenodd"/></clipPath><clipPath id="clip4"><path d="M25 70 305 70 305 350 25 350Z" fill-rule="evenodd" clip-rule="evenodd"/></clipPath><clipPath id="clip5"><path d="M25 70 305 70 305 350 25 350Z" fill-rule="evenodd" clip-rule="evenodd"/></clipPath><clipPath id="clip6"><path d="M25 70 305 70 305 350 25 350Z" fill-rule="evenodd" clip-rule="evenodd"/></clipPath></defs><g clip-path="url(#clip0)" transform="translate(-24 -61)"><g clip-path="url(#clip1)"><g clip-path="url(#clip2)"><g clip-path="url(#clip3)"><path d="M143.333 155.75 180.833 155.75 180.833 168.25 143.333 168.25Z" fill="#FFFF00"/><path d="M289.167 155.75 326.667 155.75 326.667 168.25 289.167 168.25Z" fill="#FFFF00"/><path d="M280.833 162C280.833 187.313 260.313 207.833 235 207.833 209.687 207.833 189.167 187.313 189.167 162 189.167 136.687 209.687 116.167 235 116.167 260.313 116.167 280.833 136.687 280.833 162Z" fill="#FFFF00"/><path d="M228.75 216.167 241.25 216.167 241.25 253.667 228.75 253.667Z" fill="#FFFF00"/><path d="M228.75 70.3333 241.25 70.3333 241.25 107.833 228.75 107.833Z" fill="#FFFF00"/><path d="M201.015 204.612 174.499 231.128 165.66 222.289 192.176 195.773Z" fill="#FFFF00"/><path d="M304.339 101.706 277.823 128.222 268.984 119.383 295.5 92.8667Z" fill="#FFFF00"/><path d="M201.219 119.178 192.38 128.017 165.864 101.501 174.703 92.6619Z" fill="#FFFF00"/><path d="M304.133 222.496 295.294 231.335 268.778 204.819 277.617 195.98Z" fill="#FFFF00"/></g></g></g><g clip-path="url(#clip4)"><g clip-path="url(#clip5)"><g clip-path="url(#clip6)"><path d="M253.083 209.708C252.208 209.708 251.042 209.708 250.167 209.708 250.167 209.708 250.167 209.708 250.167 209.708 250.167 195.417 243.167 182.292 231.792 174.125 220.125 165.958 205.25 163.917 191.833 168.583 180.75 147 156.25 135.917 132.917 141.458 109.583 147 92.6667 168 92.6667 192.208 92.6667 192.208 92.6667 192.5 92.6667 192.792 76.625 190.167 60.5833 196.875 50.6667 209.708 41.0417 222.833 39.2917 240.042 46 254.625 53 269.208 67.5833 278.833 83.625 279.708L83.625 280 252.792 280C272.042 280 287.792 264.25 287.792 245 287.792 225.75 272.333 209.708 253.083 209.708Z" stroke="#FFFFFF" stroke-width="4" fill="#E7E6E6"/></g></g></g></g></svg>